<svg xmlns="http://www.w3.org/2000/svg" viewBox="0 0 64 64" fill="none">
  <circle cx="32" cy="32" r="32" fill="#FFF5F7"/>
  <rect x="20" y="14" width="3.5" height="38" rx="1.75" fill="#B8860B"/>
  <path d="M23.5 16C23.5 16 44 20 44 20C44 20 44 34 44 34C44 34 23.5 30 23.5 30V16Z" fill="#DE2910"/>
  <path d="M23.5 30C23.5 30 42 33.5 42 33.5C42 33.5 40 36 38 36.5C36 37 23.5 34 23.5 34V30Z" fill="#C62828"/>
  <path d="M28.5 22.5L29.8 25.6L33.1 25.8L30.5 27.9L31.4 31L28.5 29.2L25.6 31L26.5 27.9L23.9 25.8L27.2 25.6L28.5 22.5Z" fill="#FFD54F"/>
</svg>
